PathFileType	4	(X/Y/Z)	/Volumes/GoogleDrive/My Drive/Research/Stanford/Projects/Digital Athlete Project/Sprinting/Sprint Simulation/sprinter/subjects/JA1/experimental_data/TRC/run0700cms.trc
DataRate	CameraRate	NumFrames	NumMarkers	Units	OrigDataRate	OrigDataStartFrame	OrigNumFrames
250.000000	250.000000	4	51	mm	250.000000	259	413
Frame#	Time	LPAT			RWR			LASI			LMFS			C7			LSH			RSH			RTHLD			T7			RTHLP			RARM			LLEPI			LLMAL			P3			RELB			RFOREARM			SACR			P1			P2			RTILAT			RTHAP			LTHLP			RLEPI			RPAT			LTIAD			LFOREARM			RLMAL			RP5MT			LTHLD			RMFL			LARM			LMFL			LTOE			RTHAD			MAN			RTOE			LTILAT			LHEEL			RHEEL			RMFS			LELB			RP1MT			RTIAP			LWR			RASI			LTHAP			LTHAD			LTIAP			RTIAD			LP5MT			LP1MT			
		X1	Y1	Z1	X2	Y2	Z2	X3	Y3	Z3	X4	Y4	Z4	X5	Y5	Z5	X6	Y6	Z6	X7	Y7	Z7	X8	Y8	Z8	X9	Y9	Z9	X10	Y10	Z10	X11	Y11	Z11	X12	Y12	Z12	X13	Y13	Z13	X14	Y14	Z14	X15	Y15	Z15	X16	Y16	Z16	X17	Y17	Z17	X18	Y18	Z18	X19	Y19	Z19	X20	Y20	Z20	X21	Y21	Z21	X22	Y22	Z22	X23	Y23	Z23	X24	Y24	Z24	X25	Y25	Z25	X26	Y26	Z26	X27	Y27	Z27	X28	Y28	Z28	X29	Y29	Z29	X30	Y30	Z30	X31	Y31	Z31	X32	Y32	Z32	X33	Y33	Z33	X34	Y34	Z34	X35	Y35	Z35	X36	Y36	Z36	X37	Y37	Z37	X38	Y38	Z38	X39	Y39	Z39	X40	Y40	Z40	X41	Y41	Z41	X42	Y42	Z42	X43	Y43	Z43	X44	Y44	Z44	X45	Y45	Z45	X46	Y46	Z46	X47	Y47	Z47	X48	Y48	Z48	X49	Y49	Z49	X50	Y50	Z50	X51	Y51	Z51	
259	1.036000	1927.641602	493.183289	170.426239	1837.365479	872.059387	527.352905	1798.382690	989.138428	123.038033	1693.835083	76.661942	250.167023	1746.711914	1457.283936	219.541077	1776.063477	1422.492920	52.543808	1786.536499	1436.844604	400.462219	1953.467041	649.542603	432.571533	1668.518188	1275.481201	241.604233	1882.459351	738.002014	437.075623	1705.025391	1269.705811	492.954926	1841.554932	470.314209	115.547409	1598.784424	90.836060	199.002014	1597.940674	934.542236	276.674377	1636.938354	1154.296875	538.124268	1729.080566	1038.930176	534.722961	1643.782349	1017.989380	277.059479	1617.670288	996.589661	226.460480	1637.548584	984.369385	330.113556	1810.528442	596.419128	384.145874	1981.677856	758.339417	332.175385	1762.399048	688.770630	71.257591	1992.758789	528.520447	389.818848	2063.518066	498.028442	323.325073	1706.151123	202.001251	237.196381	1855.277100	1010.822937	-54.846828	1601.161255	697.579895	343.156555	1469.039673	611.698669	370.710876	1805.012939	584.895081	88.078102	1535.479858	659.694336	348.970367	1757.265869	1226.938477	-42.969185	1656.838867	52.484299	190.345367	1786.458984	34.110111	242.320618	2035.169434	676.097046	333.351227	1884.718628	1346.878296	230.948639	1490.933350	552.035339	285.993286	1721.416138	265.812317	149.539749	1527.593506	76.261200	249.598862	1606.647827	776.472290	295.947540	1549.182983	608.499451	290.541534	1738.495483	1093.029297	-86.709007	1479.247925	586.507324	247.462433	1819.397339	565.854492	291.403015	1998.125732	886.882507	-20.282608	1844.416992	977.413696	332.697418	1895.817627	733.018921	130.175735	1916.852295	620.176880	141.938721	1789.552612	314.657990	216.940781	1710.487549	622.422607	281.555847	1714.067993	13.558078	156.581161	1755.963745	32.995491	277.622650
260	1.040000	1941.108032	482.777496	170.858765	1845.818604	868.867432	530.065125	1825.590820	988.434082	122.562248	1694.552002	76.948181	249.605789	1774.674316	1457.594727	219.720413	1804.907227	1423.502441	53.475590	1813.802734	1437.359985	400.738892	1991.730347	661.661011	432.749298	1696.986816	1275.498657	241.301514	1916.478271	746.019958	437.177338	1728.446533	1272.952515	493.267120	1853.403442	463.877197	115.921249	1599.791382	92.146744	198.915649	1626.172119	935.778015	277.561127	1656.816162	1159.533325	538.183289	1744.685059	1040.161743	535.860718	1672.397217	1018.992188	277.631317	1646.252197	997.573120	226.919846	1666.446411	985.357422	330.240204	1850.713379	599.088928	383.811584	2014.509888	770.661316	333.780182	1781.940308	685.938843	71.981361	2037.287598	540.676819	389.275726	2110.400879	514.163452	324.047272	1709.727661	200.461868	236.998367	1896.710815	1017.089050	-51.966110	1635.371094	686.327209	342.821960	1509.238892	591.546326	369.756592	1821.769775	580.719055	88.240921	1573.026978	643.880554	348.399139	1790.308105	1227.621826	-42.416885	1656.844238	52.915123	189.913635	1785.823242	33.820213	242.321457	2072.734863	691.048645	334.537781	1912.865845	1347.335693	231.726883	1535.559448	533.661133	284.600006	1726.882935	263.304596	149.626007	1528.215820	79.659348	249.061813	1635.575317	765.383850	295.698700	1591.668213	594.490906	285.739380	1776.128540	1093.326538	-85.695312	1521.828247	566.877441	246.616501	1863.557617	570.054443	287.547119	2044.087280	901.544556	-14.427062	1872.598999	978.508301	332.591339	1916.018921	724.978271	129.669205	1934.545898	611.279175	142.449875	1796.584106	310.283447	216.832306	1748.651855	619.741821	281.520660	1713.933594	13.386099	156.510590	1755.188110	33.006859	278.006470
261	1.044000	1953.351807	471.398438	171.688705	1854.657227	866.933960	532.177429	1854.251465	987.826233	122.261642	1694.970459	77.607231	249.348572	1802.661621	1458.110229	219.955002	1833.508667	1425.001465	54.276360	1840.685547	1438.527222	401.017853	2028.434692	673.527832	432.880463	1725.306274	1275.896118	241.330093	1945.383179	752.391724	436.701874	1751.935791	1276.886475	493.247925	1864.893433	458.344025	115.986412	1600.951782	94.007782	198.714798	1655.229736	937.301758	278.058716	1676.673706	1165.332153	538.591858	1760.572998	1042.360229	536.998535	1701.456665	1020.539246	277.517944	1675.403809	998.865295	227.039536	1695.134033	987.329651	331.005249	1891.312134	601.695862	382.646271	2047.134399	783.168945	335.926331	1800.955933	682.839050	72.595245	2080.594482	553.796448	389.695953	2154.656006	530.532227	324.267334	1713.158325	199.321457	236.876968	1937.228760	1024.377075	-48.843616	1669.842407	674.012085	342.166107	1552.227051	570.159241	369.454926	1838.001953	576.595337	88.623703	1611.306519	627.106812	348.012482	1822.822754	1228.745850	-41.821873	1657.098389	53.805851	189.634766	1784.567627	33.922016	242.249649	2108.649414	706.188477	336.033691	1940.847290	1348.289063	232.835724	1582.376465	514.361389	283.382324	1731.584961	261.635620	149.900009	1528.833008	83.968033	249.148682	1664.463501	752.711304	295.105255	1631.196899	579.371582	285.911163	1813.220215	1094.286255	-84.401054	1564.568726	546.773071	247.023651	1897.287109	569.788818	295.695648	2090.157959	917.075317	-8.700731	1901.006836	980.195374	332.472351	1937.088013	716.466248	129.632904	1952.016479	602.259521	142.566132	1803.483276	306.438599	216.356842	1787.229736	616.998047	280.654419	1713.481323	13.377028	156.616608	1755.690186	33.020599	277.213684
262	1.048000	1963.389404	459.508575	172.903366	1863.942383	866.363586	534.049683	1883.826294	986.908203	122.100594	1696.039551	78.674004	248.879776	1830.538574	1458.792847	220.112686	1861.779541	1427.043091	54.987934	1867.626221	1440.144165	401.114777	2064.714844	683.910767	432.821777	1754.223389	1276.010376	240.507294	1977.535645	759.481934	436.784515	1774.804810	1281.303589	492.896118	1876.080933	453.372803	116.430733	1602.084595	96.450043	198.647141	1684.348267	939.704651	278.835388	1697.550903	1171.119019	538.297058	1776.683960	1045.258789	537.835815	1730.925415	1022.602722	277.232758	1704.924927	1000.555908	227.002335	1725.046143	989.614563	330.578735	1931.240723	604.232727	381.552551	2078.875000	795.765991	338.352509	1820.613037	680.091736	73.520508	2123.158936	567.207458	389.271606	2197.446045	547.561218	324.029877	1716.452271	198.967560	236.641373	1976.899536	1032.424927	-45.500908	1704.810303	660.880310	341.212250	1595.711670	548.379456	368.981293	1854.190796	572.593445	89.037010	1650.067505	609.858032	347.525208	1855.325684	1230.444824	-41.127541	1657.469971	55.188656	189.489258	1783.878906	33.918030	242.615219	2143.276611	721.444458	337.391632	1968.212158	1349.505615	233.856079	1626.728271	495.390808	285.016479	1736.589722	260.905518	149.815872	1529.438477	89.322578	249.393250	1692.044067	739.550964	295.549408	1669.448730	563.492004	286.250305	1849.789429	1095.817627	-82.937630	1608.712769	525.455322	245.741043	1937.341309	571.458374	296.878479	2135.000488	934.300232	-2.702953	1930.148315	982.032349	332.123932	1958.009521	707.622009	129.932510	1968.755859	593.070984	143.244476	1810.012085	303.184753	216.013489	1825.137573	614.184265	279.859772	1713.136108	13.309621	156.691010	1755.432617	33.044880	277.202271
